<svg id="a7e6c88d-355e-4b54-9e5c-e7a30a93d2ec" data-name="Layer 1" xmlns="http://www.w3.org/2000/svg" viewBox="0 0 1000 1000"><title>Tool icons</title><polygon points="900 500 700 600 700 900 900 800 900 500" style="fill:#00aeef;stroke:#231f20;stroke-linecap:round;stroke-linejoin:round;stroke-width:40px"/><polygon points="698.54 899.57 700 600 450 500 450 800 698.54 899.57" style="fill:#00aeef;stroke:#231f20;stroke-linecap:round;stroke-linejoin:round;stroke-width:40px"/><polygon points="450 500 700 600 900 500 650 400 450 500" style="fill:#00aeef;stroke:#231f20;stroke-linecap:round;stroke-linejoin:round;stroke-width:40px"/><polygon points="465 180 305 260 305 500 465 420 465 180" style="fill:#f1f2f2;stroke:#231f20;stroke-linecap:round;stroke-linejoin:round;stroke-width:20px"/><polygon points="303.83 499.66 305 260 105 180 105 420 303.83 499.66" style="fill:#f1f2f2;stroke:#231f20;stroke-linecap:round;stroke-linejoin:round;stroke-width:20px"/><polygon points="105 180 305 260 465 180 265 100 105 180" style="fill:#f1f2f2;stroke:#231f20;stroke-linecap:round;stroke-linejoin:round;stroke-width:20px"/></svg>